<?xml version="1.0" encoding="UTF-8"?>
<svg id="Horizontal_Dark" data-name="Horizontal Dark" xmlns="http://www.w3.org/2000/svg" xmlns:xlink="http://www.w3.org/1999/xlink" viewBox="0 0 2812.83 1024">
  <defs>
    <style>
      .cls-1 {
        fill: url(#linear-gradient-2);
      }

      .cls-2 {
        fill: url(#linear-gradient);
      }

      .cls-3 {
        fill: #ee5558;
      }

      .cls-4 {
        fill: #f2f2f2;
      }
    </style>
    <linearGradient id="linear-gradient" x1="1149.58" y1="359.03" x2="1911.17" y2="359.03" gradientUnits="userSpaceOnUse">
      <stop offset="0" stop-color="#eb5256"/>
      <stop offset="1" stop-color="#bb4346"/>
    </linearGradient>
    <linearGradient id="linear-gradient-2" x1="1152.09" y1="760.36" x2="2732.26" y2="760.36" gradientUnits="userSpaceOnUse">
      <stop offset="0" stop-color="#fff"/>
      <stop offset=".86" stop-color="#d6d5d7"/>
    </linearGradient>
  </defs>
  <g>
    <path class="cls-3" d="M914.12,150.73c-28.2,0-53.09,14.13-68.01,35.69l-.41-.1-18.99-4.71-298.31-92.22c-14.69-4.54-25.82-4.23-40.55.29l-285.51,87.69c6.52,12.62,11.22,24.6,14.34,38.2l292.09-89.75,313.96,95.42,8.94,3.18.29.11.41.15c-.08.83-.15,1.66-.2,2.49l.06.04c-.06.67-.12,1.33-.17,1.99,0,0,0,.02,0,.02,0,.02,0,.05,0,.07-1.17,29.07,12.72,56.02,34.8,71.85.1.07.2.14.3.21,10.01,6.92,21.62,11.69,34.17,13.64.02,0,.04.01.06.01.05,0,.09.02.14.02,4.1.63,8.3.95,12.58.95,45.63,0,82.62-36.99,82.62-82.62s-36.99-82.62-82.62-82.62ZM914.4,275.28c-23.21,0-42.03-18.82-42.03-42.03s18.81-42.03,42.03-42.03,42.03,18.82,42.03,42.03-18.82,42.03-42.03,42.03ZM972.88,289.63c-.73.81-1.48,1.6-2.25,2.38.76-.77,1.52-1.57,2.25-2.38.73-.81,1.46-1.64,2.16-2.48-.7.84-1.42,1.67-2.16,2.48ZM987.94,265.61c-.86,2.13-1.81,4.21-2.83,6.24,1.02-2.02,1.96-4.1,2.83-6.24Z"/>
    <path class="cls-3" d="M132.27,372.1c-.09-.5-.18-1-.26-1.52-.06-.33-.11-.66-.17-1-.06-.34-.11-.68-.17-1.03-.12-.7-.22-1.41-.33-2.14-.09-.54-.17-1.09-.25-1.65-.05-.34-.1-.68-.15-1.02-.05-.3-.09-.61-.13-.91-.18-1.23-.35-2.49-.52-3.78-.08-.64-.17-1.29-.25-1.95-.51-3.93-1-8.06-1.47-12.21-.08-.69-.16-1.38-.24-2.07-.12-1.04-.23-2.07-.35-3.11-.08-.69-.15-1.38-.23-2.06-.11-1.03-.22-2.05-.33-3.07-.08-.68-.15-1.36-.22-2.02-.29-2.75-.58-5.43-.84-7.99-.06-.56-.12-1.11-.18-1.66,0-.08-.02-.17-.03-.25-.05-.45-.09-.89-.14-1.33-.12-1.12-.24-2.2-.35-3.25-.03-.21-.05-.41-.07-.62-.02-.21-.04-.41-.07-.61-.08-.76-.16-1.51-.24-2.22-.05-.43-.1-.86-.14-1.28-.02-.14-.03-.28-.05-.42,34.78-9.74,60.3-41.67,60.3-79.57,0-45.63-36.99-82.62-82.63-82.62S20.2,187.72,20.2,233.35c0,65.26,63.96,81.67,64.04,81.7l4.26,34.7h0c.2,1.97,3.32,28.85,4.01,30.58,28.99,181.95,139.82,353.16,300.6,448.63,2.99-14.82,6.62-26.12,13.48-40.4-148.14-93.14-244.2-246.05-274.33-416.46ZM60.58,233.25c0-23.21,18.81-42.03,42.03-42.03s42.03,18.82,42.03,42.03-18.82,42.03-42.03,42.03-42.03-18.82-42.03-42.03Z"/>
    <path class="cls-3" d="M885.47,346.14c-23.04,185.64-132.84,358.38-293.5,453.64l-12.46,4.15-.81.27c-14.15-25.2-41.13-42.22-72.08-42.22-45.63,0-82.62,36.99-82.62,82.62s36.99,82.62,82.62,82.62,81.24-35.63,82.58-80.08c.22-.11.44-.23.65-.34,1.32-.68,2.64-1.37,3.95-2.07,1.34-.7,2.67-1.41,3.99-2.13.07-.04.14-.07.2-.11.67-.36,1.34-.72,2.01-1.09.98-.53,1.97-1.07,2.95-1.61,1.25-.68,2.5-1.38,3.74-2.07.98-.55,1.97-1.11,2.95-1.67.94-.53,1.88-1.06,2.82-1.61,1.13-.65,2.25-1.3,3.37-1.96,1.42-.83,2.84-1.66,4.25-2.51,1.41-.84,2.82-1.69,4.22-2.54,1.72-1.04,3.45-2.1,5.16-3.17,1.07-.66,2.15-1.34,3.22-2.01,1.5-.94,2.98-1.89,4.47-2.85,1.28-.81,2.55-1.64,3.81-2.47,1.34-.87,2.68-1.76,4.01-2.64.17-.11.35-.23.52-.35,1.22-.81,2.44-1.62,3.65-2.45,1.36-.91,2.71-1.84,4.05-2.77,1.29-.89,2.58-1.78,3.86-2.68,3.9-2.73,7.77-5.51,11.61-8.34,1.26-.92,2.52-1.86,3.77-2.8,2.68-1.99,5.33-4.02,7.98-6.06.72-.56,1.45-1.12,2.16-1.69.72-.56,1.45-1.13,2.16-1.7,1.26-.99,2.51-1.98,3.76-2.98.17-.14.34-.27.5-.41,1.13-.9,2.26-1.81,3.38-2.73,1.12-.91,2.24-1.83,3.36-2.75,1.25-1.03,2.49-2.07,3.73-3.11,1.18-.98,2.35-1.98,3.52-2.98.09-.07.17-.14.26-.22,1.23-1.04,2.45-2.1,3.67-3.15,1.08-.93,2.15-1.87,3.22-2.82,4.33-3.8,8.6-7.67,12.82-11.59.83-.77,1.66-1.55,2.49-2.33,1.07-1,2.13-2.01,3.19-3.02,1.17-1.11,2.33-2.23,3.49-3.35.82-.79,1.64-1.59,2.46-2.4,2.67-2.61,5.32-5.24,7.95-7.91.99-1,1.98-2.01,2.96-3.03,1.29-1.32,2.57-2.64,3.84-3.98,1.12-1.18,2.24-2.36,3.36-3.54.97-1.02,1.93-2.05,2.89-3.09,1.65-1.77,3.29-3.56,4.91-5.35.82-.89,1.63-1.79,2.43-2.69,8.59-9.57,16.88-19.39,24.88-29.46.86-1.08,1.72-2.17,2.57-3.26,1.16-1.47,2.3-2.94,3.44-4.42.99-1.29,1.98-2.58,2.97-3.88,1.96-2.59,3.91-5.2,5.84-7.82.96-1.31,1.92-2.63,2.88-3.94.76-1.05,1.53-2.11,2.28-3.17,3.97-5.55,7.86-11.17,11.66-16.85.9-1.35,1.8-2.71,2.7-4.07.89-1.36,1.78-2.72,2.67-4.09.88-1.36,1.77-2.73,2.64-4.11.87-1.37,1.74-2.75,2.61-4.12,1.73-2.76,3.44-5.53,5.12-8.32.84-1.39,1.68-2.78,2.52-4.18.83-1.4,1.66-2.8,2.49-4.2.82-1.4,1.64-2.81,2.46-4.22,1.62-2.82,3.23-5.65,4.82-8.5.7-1.27,1.41-2.54,2.11-3.82,1.69-3.08,3.36-6.19,5.01-9.31,1.48-2.8,2.93-5.61,4.37-8.43,3.7-7.25,7.27-14.58,10.7-21.97.69-1.48,1.37-2.96,2.04-4.44.68-1.48,1.35-2.97,2.01-4.45,2.69-6.01,5.29-12.07,7.8-18.17.99-2.4,1.96-4.8,2.92-7.21.25-.62.5-1.24.74-1.85,1.2-3.03,2.38-6.07,3.53-9.12.58-1.52,1.15-3.05,1.71-4.58.57-1.53,1.12-3.06,1.68-4.59,1.09-3.01,2.16-6.04,3.2-9.07,1.26-3.65,2.49-7.31,3.69-10.98.67-2.04,1.33-4.09,1.97-6.14.16-.49.32-.98.47-1.48.48-1.53.95-3.05,1.42-4.58.49-1.6.97-3.19,1.44-4.79.23-.78.46-1.55.68-2.33.25-.83.49-1.66.73-2.49,1.36-4.7,2.66-9.42,3.92-14.15.71-2.68,1.4-5.36,2.07-8.05.52-2.06,1.03-4.13,1.53-6.2.59-2.45,1.17-4.89,1.72-7.35.17-.7.33-1.41.49-2.12.25-1.08.49-2.16.72-3.25.12-.54.24-1.07.36-1.61.69-3.17,1.36-6.35,2-9.53.33-1.62.65-3.24.96-4.87.63-3.21,1.23-6.42,1.8-9.64.29-1.61.57-3.22.85-4.83.54-3.15,1.06-6.31,1.55-9.48.37-2.36.73-4.72,1.06-7.09.15-.94.28-1.89.41-2.83.1-.69.2-1.39.29-2.08.32-2.31.62-4.62.91-6.93.24-1.87.47-3.74.69-5.6-15.65.32-27.73-.28-41.55-1.88ZM506.7,886.23c-23.21,0-42.03-18.82-42.03-42.03s18.82-42.03,42.03-42.03,42.03,18.82,42.03,42.03-18.82,42.03-42.03,42.03Z"/>
    <path class="cls-4" d="M659.51,535.88c-82.78,46.49-177.73,54.39-265.91,21.75-60.09-23.2-112.51-59.74-157.45-106.82,40.57-42.64,87.09-77.4,140.33-100.88,95.36-40.8,200.9-34.26,289.62,19.1,38.89,20.92,71.21,49.27,104.02,81.23-32.49,34.25-68.17,63.25-110.6,85.61ZM598.81,530.28c48.39-18.01,89.85-44.39,128.44-79.59-27.1-25.14-55.76-45.71-87.89-62.09-73.93-39.93-158.26-45.85-237.11-16.25-46.32,17.56-86.82,44.45-123.39,78.44,89.18,81.79,201.64,121.07,319.95,79.49Z"/>
    <path class="cls-4" d="M503.19,493.32c-23.21,0-42.03-18.82-42.03-42.03s18.82-42.03,42.03-42.03,42.03,18.82,42.03,42.03-18.82,42.03-42.03,42.03Z"/>
    <path class="cls-3" d="M503.22,371.14c-44.51,0-80.58,36.08-80.58,80.58s36.08,80.58,80.58,80.58,80.58-36.08,80.58-80.58-36.08-80.58-80.58-80.58ZM503.22,492.44c-22.48,0-40.71-18.23-40.71-40.71s18.22-40.71,40.71-40.71,40.71,18.23,40.71,40.71-18.23,40.71-40.71,40.71Z"/>
  </g>
  <g>
    <path class="cls-2" d="M1149.58,518.11v-222.91c0-5.24,2.38-7.62,7.62-7.62h46.68c3.33,0,7.14,2.38,7.14,7.62v16.67h7.14c10-16.67,30.01-26.2,55.73-26.2h6.67c53.35,0,73.35,29.05,73.35,80.5v151.94c0,5.24-3.81,7.62-6.67,7.62h-47.15c-4.76,0-7.62-2.38-7.62-7.62v-146.22c0-20.48-10.95-31.44-28.1-31.44h-21.43c-18.58,0-31.91,10.95-31.91,31.91v145.75c0,5.24-3.81,7.62-7.14,7.62h-46.68c-5.24,0-7.62-2.38-7.62-7.62ZM1412.49,433.81v-16.19c0-38.1,12.38-62.4,39.53-74.3-19.05-10.95-28.1-30.96-28.1-64.3,0-58.11,27.63-89.07,91.93-89.07h29.05c64.3,0,91.93,30.96,91.93,89.07,0,33.34-9.05,53.35-28.1,64.3,27.15,11.91,39.53,36.2,39.53,74.3v16.19c0,56.2-29.05,94.31-98.12,94.31h-39.53c-69.06,0-98.12-38.1-98.12-94.31ZM1514.9,473.34h30.96c25.24,0,40.96-10,40.96-39.53v-16.19c0-32.86-15.72-42.39-40.96-42.39h-30.96c-25.24,0-40.96,9.53-40.96,42.39v16.19c0,29.53,15.72,39.53,40.96,39.53ZM1520.14,316.16h20.48c31.91,0,38.1-15.72,38.1-37.15s-5.72-36.68-38.1-36.68h-20.48c-32.39,0-38.1,15.72-38.1,36.68s5.72,37.15,38.1,37.15ZM1706.84,518.11v-222.91c0-5.24,2.38-7.62,7.62-7.62h46.68c3.33,0,7.14,2.38,7.14,7.62v16.67h7.14c10-16.67,30.01-26.2,55.73-26.2h6.67c53.35,0,73.35,29.05,73.35,80.5v151.94c0,5.24-3.81,7.62-6.67,7.62h-47.15c-4.76,0-7.62-2.38-7.62-7.62v-146.22c0-20.48-10.95-31.44-28.1-31.44h-21.43c-18.58,0-31.91,10.95-31.91,31.91v145.75c0,5.24-3.81,7.62-7.14,7.62h-46.68c-5.24,0-7.62-2.38-7.62-7.62Z"/>
    <path class="cls-1" d="M1152.09,842.96c0-5.66,2.83-8.5,8.02-8.5h29.73c5.19,0,8.5,2.83,8.97,8.5.94,31.62,22.18,42.48,55.69,42.48h26.43c33.51,0,54.75-11.8,54.75-50.97s-22.18-49.09-58.53-54.75l-22.18-3.78c-57.58-8.97-100.06-22.66-100.06-96.76,0-59.94,35.4-86.37,97.23-86.37h27.85c60.89,0,94.4,29.26,94.4,86.37,0,5.66-2.83,8.5-8.02,8.5h-29.74c-5.19,0-8.5-2.83-8.97-8.5-.94-32.09-18.41-43.89-50.97-43.89h-21.71c-33.51,0-53.33,10.86-53.33,45.78s16.99,49.09,53.33,54.75l22.18,3.78c58.53,8.97,105.25,21.24,105.25,94.87,0,64.19-33.04,93.45-96.28,93.45h-36.34c-64.66,0-97.7-27.85-97.7-84.96ZM1431.03,846.26v-76.93c0-50.97,27.85-81.65,84.49-81.65h23.6c57.11,0,84.48,30.68,84.48,81.18v42.48c0,9.44-5.66,15.1-15.58,15.1h-131.68v19.82c0,25.01,15.58,42.95,51.45,42.95h4.72c33.04,0,48.61-6.14,62.3-14.16,3.3-1.89,6.14-1.42,8.5,1.42l10.38,16.05c2.36,2.83,2.36,5.66.47,7.55-15.1,15.58-45.78,27.85-82.13,27.85h-5.66c-67.97,0-95.34-32.09-95.34-81.65ZM1577.81,792.46v-23.13c0-26.9-14.16-40.59-40.59-40.59h-19.82c-26.43,0-41.06,14.16-41.06,41.06v22.66h101.48ZM1677.4,918.95v-222.78c0-4.25,1.89-6.61,6.61-6.61h32.57c3.78,0,6.14,2.36,6.14,6.61v18.88h6.14c10.86-16.99,31.62-27.38,58.53-27.38h10.86c53.81,0,75.05,27.85,75.05,79.77v151.51c0,4.25-2.83,6.61-6.61,6.61h-32.57c-4.25,0-6.61-2.36-6.61-6.61v-147.26c0-27.85-13.22-42.95-40.59-42.95h-19.35c-27.85,0-44.84,15.1-44.84,42.48v147.73c0,4.25-2.36,6.61-6.14,6.61h-32.57c-4.72,0-6.61-2.36-6.61-6.61ZM1949.73,857.59v-127.44h-30.68c-4.72,0-6.61-1.89-6.61-6.61v-26.9c0-5.19,1.89-7.08,6.61-7.08h30.68v-45.78c0-4.25,2.36-6.61,6.61-6.61h32.57c4.25,0,6.61,2.36,6.61,6.61v45.78h35.87c4.72,0,6.61,1.89,6.61,7.08v26.9c0,4.72-1.89,6.61-6.61,6.61h-35.87v126.96c0,23.13,8.5,30.21,28.79,30.21,7.55,0,10.38,3.3,10.38,9.91v17.94c0,8.97-5.66,12.74-25.02,12.74-49.56,0-59.94-26.9-59.94-70.33ZM2087.07,632.45v-30.68c0-4.25,1.89-6.61,6.61-6.61h32.57c4.72,0,6.61,2.36,6.61,6.61v30.68c0,4.72-1.89,6.61-6.61,6.61h-32.57c-4.72,0-6.61-1.89-6.61-6.61ZM2087.07,696.17c0-4.25,1.89-6.61,6.61-6.61h32.1c4.72,0,6.61,2.36,6.61,6.61v222.78c0,4.25-1.89,6.61-6.61,6.61h-32.1c-4.72,0-6.61-2.36-6.61-6.61v-222.78ZM2191.37,918.95v-222.78c0-4.25,1.89-6.61,6.61-6.61h32.57c3.78,0,6.14,2.36,6.14,6.61v18.88h6.14c10.86-16.99,31.62-27.38,58.53-27.38h10.86c53.81,0,75.05,27.85,75.05,79.77v151.51c0,4.25-2.83,6.61-6.61,6.61h-32.57c-4.25,0-6.61-2.36-6.61-6.61v-147.26c0-27.85-13.22-42.95-40.59-42.95h-19.35c-27.85,0-44.84,15.1-44.84,42.48v147.73c0,4.25-2.36,6.61-6.14,6.61h-32.57c-4.72,0-6.61-2.36-6.61-6.61ZM2440.58,846.26v-76.93c0-50.97,27.85-81.65,84.48-81.65h23.6c57.11,0,84.48,30.68,84.48,81.18v42.48c0,9.44-5.66,15.1-15.58,15.1h-131.68v19.82c0,25.01,15.58,42.95,51.45,42.95h4.72c33.04,0,48.61-6.14,62.3-14.16,3.3-1.89,6.14-1.42,8.5,1.42l10.38,16.05c2.36,2.83,2.36,5.66.47,7.55-15.1,15.58-45.78,27.85-82.13,27.85h-5.66c-67.97,0-95.34-32.09-95.34-81.65ZM2587.36,792.46v-23.13c0-26.9-14.16-40.59-40.59-40.59h-19.82c-26.43,0-41.06,14.16-41.06,41.06v22.66h101.48ZM2686.95,918.95v-317.17c0-4.25,1.89-6.61,6.61-6.61h32.09c4.72,0,6.61,2.36,6.61,6.61v317.17c0,4.25-1.89,6.61-6.61,6.61h-32.09c-4.72,0-6.61-2.36-6.61-6.61Z"/>
  </g>
</svg>